<?xml version="1.0" encoding="UTF-8" standalone="no"?><!DOCTYPE svg PUBLIC "-//W3C//DTD SVG 1.1//EN" "http://www.w3.org/Graphics/SVG/1.1/DTD/svg11.dtd"><svg width="100%" height="100%" viewBox="0 0 512 512" version="1.1" xmlns="http://www.w3.org/2000/svg" xmlns:xlink="http://www.w3.org/1999/xlink" xml:space="preserve" xmlns:serif="http://www.serif.com/" style="fill-rule:evenodd;clip-rule:evenodd;stroke-linejoin:round;stroke-miterlimit:2;"><g><path d="M504.797,481.348c-9.346,-30.351 -24.63,-87.529 -33.587,-109.299c-7.237,-17.567 -13.998,-35.22 -22.305,-43.541c-8.306,-8.307 -22.434,-7.656 -30.958,0.838c0,-0 -35.667,24.197 -48.452,40.203c-16.006,12.742 -40.232,48.496 -40.232,48.496c-8.523,8.523 -9.173,22.637 -0.867,30.958c8.321,8.306 25.974,15.067 43.555,22.305c21.756,8.956 78.948,24.211 109.299,33.587c5.186,1.589 25.136,-18.361 23.547,-23.547Z" style="fill:#d99e82;fill-rule:nonzero;"/><path d="M193.065,72.668c16.627,16.627 16.627,43.569 -0,60.196l-60.197,60.212c-16.627,16.613 -43.598,16.613 -60.197,-0l-60.211,-60.212c-16.613,-16.627 -16.613,-43.569 -0,-60.196l60.197,-60.197c16.613,-16.628 43.569,-16.628 60.197,-0l60.211,60.197Z" style="fill:#ea596e;fill-rule:nonzero;"/><path d="M448.905,328.508l-60.24,60.24l-60.139,60.168l-225.764,-225.749l120.409,-120.394l225.734,225.735Z" style="fill:#ffcc4d;fill-rule:nonzero;"/><path d="M459.379,498.177c-0,0 39.134,21.511 49.709,10.936c10.574,-10.574 -11.051,-49.622 -11.051,-49.622c-0,-0 -37.069,0.693 -38.658,38.686Z" style="fill:#292f33;fill-rule:nonzero;"/><path d="M27.513,147.917l120.408,-120.408l75.235,75.25l-120.394,120.408l-75.249,-75.25Z" style="fill:#ccd6dd;fill-rule:nonzero;"/><path d="M42.565,162.956l120.394,-120.394l15.053,15.053l-120.394,120.393l-15.053,-15.052Zm30.092,30.134l120.408,-120.408l15.053,15.053l-120.408,120.394l-15.053,-15.039Z" style="fill:#99aab5;fill-rule:nonzero;"/></g></svg>